<mxfile host="app.diagrams.net" agent="Mozilla/5.0 (Windows NT 10.0; Win64; x64) AppleWebKit/537.36 (KHTML, like Gecko) Chrome/140.0.0.0 Safari/537.36 Edg/140.0.0.0" version="28.2.4">
  <diagram name="第 1 页" id="Gy5xqi0gqiuN22DDJ5Di">
    <mxGraphModel dx="1371" dy="789" grid="1" gridSize="10" guides="1" tooltips="1" connect="1" arrows="1" fold="1" page="1" pageScale="1" pageWidth="1654" pageHeight="1169" math="0" shadow="0">
      <root>
        <mxCell id="0" />
        <mxCell id="1" parent="0" />
        <mxCell id="eothq0L4Ka9QhwZ8H1on-29" value="PE阵列&#xa;核心计算单元" style="whiteSpace=wrap;strokeWidth=2;verticalAlign=top;container=0;" parent="1" vertex="1">
          <mxGeometry x="300" y="270" width="440" height="440" as="geometry" />
        </mxCell>
        <mxCell id="eothq0L4Ka9QhwZ8H1on-33" value="Scratchpad接口" style="whiteSpace=wrap;strokeWidth=2;verticalAlign=top;" parent="1" vertex="1">
          <mxGeometry x="870" y="280" width="290" height="430" as="geometry" />
        </mxCell>
        <mxCell id="eothq0L4Ka9QhwZ8H1on-34" value="IAct FIFO" style="whiteSpace=wrap;strokeWidth=2;" parent="eothq0L4Ka9QhwZ8H1on-33" vertex="1">
          <mxGeometry x="52.727272727272734" y="64.50098039215686" width="161.11111111111111" height="50.58823529411765" as="geometry" />
        </mxCell>
        <mxCell id="eothq0L4Ka9QhwZ8H1on-35" value="Wght FIFO" style="whiteSpace=wrap;strokeWidth=2;" parent="eothq0L4Ka9QhwZ8H1on-33" vertex="1">
          <mxGeometry x="65.9090909090909" y="200" width="161.1081818181818" height="44.51" as="geometry" />
        </mxCell>
        <mxCell id="eothq0L4Ka9QhwZ8H1on-36" value="PSum FIFO" style="whiteSpace=wrap;strokeWidth=2;" parent="eothq0L4Ka9QhwZ8H1on-33" vertex="1">
          <mxGeometry x="64.4459090909091" y="309.995294117647" width="161.11111111111111" height="50.58823529411765" as="geometry" />
        </mxCell>
        <mxCell id="eothq0L4Ka9QhwZ8H1on-37" value="外部内存" style="whiteSpace=wrap;strokeWidth=2;" parent="1" vertex="1">
          <mxGeometry x="311.22" y="838" width="124" height="54" as="geometry" />
        </mxCell>
        <mxCell id="eothq0L4Ka9QhwZ8H1on-38" value="Scratchpad内存" style="whiteSpace=wrap;strokeWidth=2;" parent="1" vertex="1">
          <mxGeometry x="560" y="830" width="580" height="70" as="geometry" />
        </mxCell>
        <mxCell id="eothq0L4Ka9QhwZ8H1on-39" value="输出结果" style="whiteSpace=wrap;strokeWidth=2;" parent="1" vertex="1">
          <mxGeometry x="1230" y="820" width="160" height="72" as="geometry" />
        </mxCell>
        <mxCell id="eothq0L4Ka9QhwZ8H1on-40" value="控制地址生成器" style="whiteSpace=wrap;strokeWidth=2;" parent="1" vertex="1">
          <mxGeometry x="580" y="190" width="360" height="54" as="geometry" />
        </mxCell>
        <mxCell id="eothq0L4Ka9QhwZ8H1on-41" value="加载数据&#xa;(输入激活/权重)" style="curved=1;startArrow=none;endArrow=block;exitX=1;exitY=0.5;rounded=0;entryX=0;entryY=0.5;entryDx=0;entryDy=0;" parent="1" source="eothq0L4Ka9QhwZ8H1on-37" target="eothq0L4Ka9QhwZ8H1on-38" edge="1">
          <mxGeometry relative="1" as="geometry">
            <Array as="points">
              <mxPoint x="460" y="880" />
            </Array>
            <mxPoint x="510" y="990" as="targetPoint" />
          </mxGeometry>
        </mxCell>
        <mxCell id="eothq0L4Ka9QhwZ8H1on-42" value="读取最终结果" style="curved=1;startArrow=none;endArrow=block;exitX=1;exitY=0.5;entryX=0;entryY=0.5;rounded=0;" parent="1" source="eothq0L4Ka9QhwZ8H1on-38" target="eothq0L4Ka9QhwZ8H1on-39" edge="1">
          <mxGeometry relative="1" as="geometry">
            <Array as="points">
              <mxPoint x="1190" y="850" />
            </Array>
          </mxGeometry>
        </mxCell>
        <mxCell id="eothq0L4Ka9QhwZ8H1on-43" value="读取数据" style="curved=1;startArrow=none;endArrow=block;exitX=0.75;exitY=0;entryX=0.75;entryY=1;rounded=0;entryDx=0;entryDy=0;exitDx=0;exitDy=0;" parent="1" source="eothq0L4Ka9QhwZ8H1on-38" target="eothq0L4Ka9QhwZ8H1on-33" edge="1">
          <mxGeometry relative="1" as="geometry">
            <Array as="points">
              <mxPoint x="980" y="770" />
            </Array>
          </mxGeometry>
        </mxCell>
        <mxCell id="eothq0L4Ka9QhwZ8H1on-44" value="输入激活" style="curved=1;startArrow=none;endArrow=block;exitX=-0.014;exitY=0.407;entryX=0.997;entryY=0.414;rounded=0;exitDx=0;exitDy=0;exitPerimeter=0;entryDx=0;entryDy=0;entryPerimeter=0;" parent="1" source="eothq0L4Ka9QhwZ8H1on-33" target="eothq0L4Ka9QhwZ8H1on-29" edge="1">
          <mxGeometry relative="1" as="geometry">
            <Array as="points">
              <mxPoint x="820" y="470" />
            </Array>
          </mxGeometry>
        </mxCell>
        <mxCell id="eothq0L4Ka9QhwZ8H1on-45" value="权重" style="curved=1;startArrow=none;endArrow=block;entryX=0.997;entryY=0.676;rounded=0;entryDx=0;entryDy=0;entryPerimeter=0;" parent="1" target="eothq0L4Ka9QhwZ8H1on-29" edge="1">
          <mxGeometry relative="1" as="geometry">
            <Array as="points" />
            <mxPoint x="870" y="567" as="sourcePoint" />
          </mxGeometry>
        </mxCell>
        <mxCell id="eothq0L4Ka9QhwZ8H1on-46" value="部分和(PSum)" style="curved=1;startArrow=none;endArrow=block;exitX=1.001;exitY=0.155;entryX=-0.005;entryY=0.134;rounded=0;entryDx=0;entryDy=0;entryPerimeter=0;exitDx=0;exitDy=0;exitPerimeter=0;" parent="1" source="eothq0L4Ka9QhwZ8H1on-29" target="eothq0L4Ka9QhwZ8H1on-33" edge="1">
          <mxGeometry relative="1" as="geometry">
            <Array as="points" />
          </mxGeometry>
        </mxCell>
        <mxCell id="eothq0L4Ka9QhwZ8H1on-47" value="写入部分和" style="curved=1;startArrow=none;endArrow=block;exitX=0.25;exitY=1;entryX=0.25;entryY=0;rounded=0;exitDx=0;exitDy=0;entryDx=0;entryDy=0;" parent="1" source="eothq0L4Ka9QhwZ8H1on-33" target="eothq0L4Ka9QhwZ8H1on-38" edge="1">
          <mxGeometry relative="1" as="geometry">
            <Array as="points">
              <mxPoint x="863" y="790" />
            </Array>
          </mxGeometry>
        </mxCell>
        <mxCell id="eothq0L4Ka9QhwZ8H1on-48" value="地址/命令" style="curved=1;startArrow=none;endArrow=block;entryX=0.5;entryY=0;rounded=0;exitX=1;exitY=0.5;exitDx=0;exitDy=0;entryDx=0;entryDy=0;" parent="1" source="eothq0L4Ka9QhwZ8H1on-40" target="eothq0L4Ka9QhwZ8H1on-33" edge="1">
          <mxGeometry relative="1" as="geometry">
            <Array as="points">
              <mxPoint x="1080" y="230" />
            </Array>
            <mxPoint x="728" y="100" as="sourcePoint" />
          </mxGeometry>
        </mxCell>
        <mxCell id="eothq0L4Ka9QhwZ8H1on-49" value="使能信号" style="curved=1;startArrow=none;endArrow=block;exitX=0;exitY=0.5;entryX=0.5;entryY=0;rounded=0;exitDx=0;exitDy=0;entryDx=0;entryDy=0;" parent="1" source="eothq0L4Ka9QhwZ8H1on-40" target="eothq0L4Ka9QhwZ8H1on-29" edge="1">
          <mxGeometry x="-1" y="-70" relative="1" as="geometry">
            <Array as="points">
              <mxPoint x="470" y="250" />
            </Array>
            <mxPoint x="-14" y="18" as="offset" />
          </mxGeometry>
        </mxCell>
        <mxCell id="eothq0L4Ka9QhwZ8H1on-30" value="PE" style="whiteSpace=wrap;strokeWidth=2;fontSize=20;" parent="1" vertex="1">
          <mxGeometry x="340" y="316" width="66.44" height="62.41" as="geometry" />
        </mxCell>
        <mxCell id="eothq0L4Ka9QhwZ8H1on-54" value="PE" style="whiteSpace=wrap;strokeWidth=2;fontSize=20;" parent="1" vertex="1">
          <mxGeometry x="450" y="316" width="66.44" height="62.41" as="geometry" />
        </mxCell>
        <mxCell id="eothq0L4Ka9QhwZ8H1on-55" value="PE" style="whiteSpace=wrap;strokeWidth=2;fontSize=20;" parent="1" vertex="1">
          <mxGeometry x="630" y="316" width="66.44" height="62.41" as="geometry" />
        </mxCell>
        <mxCell id="eothq0L4Ka9QhwZ8H1on-56" value="PE" style="whiteSpace=wrap;strokeWidth=2;fontSize=20;" parent="1" vertex="1">
          <mxGeometry x="340" y="432" width="66.44" height="62.41" as="geometry" />
        </mxCell>
        <mxCell id="eothq0L4Ka9QhwZ8H1on-57" value="PE" style="whiteSpace=wrap;strokeWidth=2;fontSize=20;" parent="1" vertex="1">
          <mxGeometry x="450" y="432" width="66.44" height="62.41" as="geometry" />
        </mxCell>
        <mxCell id="eothq0L4Ka9QhwZ8H1on-58" value="PE" style="whiteSpace=wrap;strokeWidth=2;fontSize=20;" parent="1" vertex="1">
          <mxGeometry x="630" y="432" width="66.44" height="62.41" as="geometry" />
        </mxCell>
        <mxCell id="eothq0L4Ka9QhwZ8H1on-59" value="PE" style="whiteSpace=wrap;strokeWidth=2;fontSize=20;" parent="1" vertex="1">
          <mxGeometry x="340" y="612" width="66.44" height="62.41" as="geometry" />
        </mxCell>
        <mxCell id="eothq0L4Ka9QhwZ8H1on-60" value="PE" style="whiteSpace=wrap;strokeWidth=2;fontSize=20;" parent="1" vertex="1">
          <mxGeometry x="450" y="612" width="66.44" height="62.41" as="geometry" />
        </mxCell>
        <mxCell id="eothq0L4Ka9QhwZ8H1on-61" value="PE" style="whiteSpace=wrap;strokeWidth=2;fontSize=20;" parent="1" vertex="1">
          <mxGeometry x="630" y="612" width="66.44" height="62.41" as="geometry" />
        </mxCell>
        <mxCell id="eothq0L4Ka9QhwZ8H1on-63" value="" style="endArrow=none;dashed=1;html=1;dashPattern=1 3;strokeWidth=2;rounded=0;movable=1;resizable=1;rotatable=1;deletable=1;editable=1;locked=0;connectable=1;exitX=1;exitY=1;exitDx=0;exitDy=0;entryX=0;entryY=0;entryDx=0;entryDy=0;" parent="1" source="eothq0L4Ka9QhwZ8H1on-57" target="eothq0L4Ka9QhwZ8H1on-61" edge="1">
          <mxGeometry width="50" height="50" relative="1" as="geometry">
            <mxPoint x="552" y="526" as="sourcePoint" />
            <mxPoint x="602" y="576" as="targetPoint" />
          </mxGeometry>
        </mxCell>
        <mxCell id="eothq0L4Ka9QhwZ8H1on-64" value="" style="endArrow=none;dashed=1;html=1;dashPattern=1 3;strokeWidth=2;rounded=0;movable=1;resizable=1;rotatable=1;deletable=1;editable=1;locked=0;connectable=1;entryX=0.5;entryY=0;entryDx=0;entryDy=0;exitX=0.5;exitY=1;exitDx=0;exitDy=0;" parent="1" source="eothq0L4Ka9QhwZ8H1on-56" target="eothq0L4Ka9QhwZ8H1on-59" edge="1">
          <mxGeometry width="50" height="50" relative="1" as="geometry">
            <mxPoint x="390" y="526" as="sourcePoint" />
            <mxPoint x="440" y="576" as="targetPoint" />
          </mxGeometry>
        </mxCell>
        <mxCell id="eothq0L4Ka9QhwZ8H1on-65" value="" style="endArrow=none;dashed=1;html=1;dashPattern=1 3;strokeWidth=2;rounded=0;movable=1;resizable=1;rotatable=1;deletable=1;editable=1;locked=0;connectable=1;exitX=0.5;exitY=1;exitDx=0;exitDy=0;entryX=0.5;entryY=0;entryDx=0;entryDy=0;" parent="1" source="eothq0L4Ka9QhwZ8H1on-57" target="eothq0L4Ka9QhwZ8H1on-60" edge="1">
          <mxGeometry width="50" height="50" relative="1" as="geometry">
            <mxPoint x="540" y="576" as="sourcePoint" />
            <mxPoint x="590" y="626" as="targetPoint" />
          </mxGeometry>
        </mxCell>
        <mxCell id="eothq0L4Ka9QhwZ8H1on-66" value="" style="endArrow=none;dashed=1;html=1;dashPattern=1 3;strokeWidth=2;rounded=0;movable=1;resizable=1;rotatable=1;deletable=1;editable=1;locked=0;connectable=1;exitX=1;exitY=0.5;exitDx=0;exitDy=0;entryX=0;entryY=0.5;entryDx=0;entryDy=0;" parent="1" source="eothq0L4Ka9QhwZ8H1on-59" target="eothq0L4Ka9QhwZ8H1on-60" edge="1">
          <mxGeometry width="50" height="50" relative="1" as="geometry">
            <mxPoint x="450" y="586" as="sourcePoint" />
            <mxPoint x="500" y="636" as="targetPoint" />
          </mxGeometry>
        </mxCell>
        <mxCell id="eothq0L4Ka9QhwZ8H1on-67" value="" style="endArrow=none;dashed=1;html=1;dashPattern=1 3;strokeWidth=2;rounded=0;movable=1;resizable=1;rotatable=1;deletable=1;editable=1;locked=0;connectable=1;exitX=1;exitY=0.5;exitDx=0;exitDy=0;entryX=0;entryY=0.5;entryDx=0;entryDy=0;" parent="1" source="eothq0L4Ka9QhwZ8H1on-60" target="eothq0L4Ka9QhwZ8H1on-61" edge="1">
          <mxGeometry width="50" height="50" relative="1" as="geometry">
            <mxPoint x="560" y="636" as="sourcePoint" />
            <mxPoint x="604" y="636" as="targetPoint" />
          </mxGeometry>
        </mxCell>
        <mxCell id="eothq0L4Ka9QhwZ8H1on-68" value="" style="endArrow=none;dashed=1;html=1;dashPattern=1 3;strokeWidth=2;rounded=0;movable=1;resizable=1;rotatable=1;deletable=1;editable=1;locked=0;connectable=1;exitX=0.5;exitY=1;exitDx=0;exitDy=0;entryX=0.5;entryY=0;entryDx=0;entryDy=0;" parent="1" source="eothq0L4Ka9QhwZ8H1on-58" target="eothq0L4Ka9QhwZ8H1on-61" edge="1">
          <mxGeometry width="50" height="50" relative="1" as="geometry">
            <mxPoint x="630" y="636" as="sourcePoint" />
            <mxPoint x="674" y="636" as="targetPoint" />
          </mxGeometry>
        </mxCell>
        <mxCell id="eothq0L4Ka9QhwZ8H1on-69" value="" style="endArrow=none;dashed=1;html=1;dashPattern=1 3;strokeWidth=2;rounded=0;movable=1;resizable=1;rotatable=1;deletable=1;editable=1;locked=0;connectable=1;exitX=1;exitY=0.5;exitDx=0;exitDy=0;entryX=0;entryY=0.5;entryDx=0;entryDy=0;" parent="1" source="eothq0L4Ka9QhwZ8H1on-57" target="eothq0L4Ka9QhwZ8H1on-58" edge="1">
          <mxGeometry width="50" height="50" relative="1" as="geometry">
            <mxPoint x="620" y="446" as="sourcePoint" />
            <mxPoint x="664" y="446" as="targetPoint" />
          </mxGeometry>
        </mxCell>
        <mxCell id="eothq0L4Ka9QhwZ8H1on-70" value="" style="endArrow=none;dashed=1;html=1;dashPattern=1 3;strokeWidth=2;rounded=0;movable=1;resizable=1;rotatable=1;deletable=1;editable=1;locked=0;connectable=1;exitX=1;exitY=0.5;exitDx=0;exitDy=0;entryX=0;entryY=0.5;entryDx=0;entryDy=0;" parent="1" source="eothq0L4Ka9QhwZ8H1on-54" target="eothq0L4Ka9QhwZ8H1on-55" edge="1">
          <mxGeometry width="50" height="50" relative="1" as="geometry">
            <mxPoint x="530" y="336" as="sourcePoint" />
            <mxPoint x="644" y="336" as="targetPoint" />
          </mxGeometry>
        </mxCell>
        <mxCell id="eothq0L4Ka9QhwZ8H1on-71" value="" style="endArrow=none;dashed=1;html=1;dashPattern=1 3;strokeWidth=2;rounded=0;movable=1;resizable=1;rotatable=1;deletable=1;editable=1;locked=0;connectable=1;exitX=1;exitY=0.5;exitDx=0;exitDy=0;" parent="1" source="eothq0L4Ka9QhwZ8H1on-30" edge="1">
          <mxGeometry width="50" height="50" relative="1" as="geometry">
            <mxPoint x="426.22" y="346.92999999999995" as="sourcePoint" />
            <mxPoint x="450" y="347" as="targetPoint" />
          </mxGeometry>
        </mxCell>
        <mxCell id="eothq0L4Ka9QhwZ8H1on-72" value="" style="endArrow=none;dashed=1;html=1;dashPattern=1 3;strokeWidth=2;rounded=0;movable=1;resizable=1;rotatable=1;deletable=1;editable=1;locked=0;connectable=1;exitX=1;exitY=0.5;exitDx=0;exitDy=0;entryX=0;entryY=0.5;entryDx=0;entryDy=0;" parent="1" source="eothq0L4Ka9QhwZ8H1on-56" target="eothq0L4Ka9QhwZ8H1on-57" edge="1">
          <mxGeometry width="50" height="50" relative="1" as="geometry">
            <mxPoint x="409" y="456" as="sourcePoint" />
            <mxPoint x="453" y="456" as="targetPoint" />
          </mxGeometry>
        </mxCell>
        <mxCell id="eothq0L4Ka9QhwZ8H1on-74" value="" style="endArrow=none;dashed=1;html=1;dashPattern=1 3;strokeWidth=2;rounded=0;movable=1;resizable=1;rotatable=1;deletable=1;editable=1;locked=0;connectable=1;exitX=0.5;exitY=1;exitDx=0;exitDy=0;" parent="1" source="eothq0L4Ka9QhwZ8H1on-30" target="eothq0L4Ka9QhwZ8H1on-56" edge="1">
          <mxGeometry width="50" height="50" relative="1" as="geometry">
            <mxPoint x="440" y="516" as="sourcePoint" />
            <mxPoint x="484" y="516" as="targetPoint" />
          </mxGeometry>
        </mxCell>
        <mxCell id="eothq0L4Ka9QhwZ8H1on-75" value="" style="endArrow=none;dashed=1;html=1;dashPattern=1 3;strokeWidth=2;rounded=0;movable=1;resizable=1;rotatable=1;deletable=1;editable=1;locked=0;connectable=1;exitX=0.5;exitY=1;exitDx=0;exitDy=0;entryX=0.5;entryY=0;entryDx=0;entryDy=0;" parent="1" source="eothq0L4Ka9QhwZ8H1on-54" target="eothq0L4Ka9QhwZ8H1on-57" edge="1">
          <mxGeometry width="50" height="50" relative="1" as="geometry">
            <mxPoint x="460" y="406" as="sourcePoint" />
            <mxPoint x="460" y="460" as="targetPoint" />
          </mxGeometry>
        </mxCell>
        <mxCell id="eothq0L4Ka9QhwZ8H1on-76" value="" style="endArrow=none;dashed=1;html=1;dashPattern=1 3;strokeWidth=2;rounded=0;movable=1;resizable=1;rotatable=1;deletable=1;editable=1;locked=0;connectable=1;exitX=0.5;exitY=1;exitDx=0;exitDy=0;entryX=0.5;entryY=0;entryDx=0;entryDy=0;" parent="1" source="eothq0L4Ka9QhwZ8H1on-55" target="eothq0L4Ka9QhwZ8H1on-58" edge="1">
          <mxGeometry width="50" height="50" relative="1" as="geometry">
            <mxPoint x="550" y="406" as="sourcePoint" />
            <mxPoint x="550" y="460" as="targetPoint" />
          </mxGeometry>
        </mxCell>
      </root>
    </mxGraphModel>
  </diagram>
</mxfile>
